Normalized EMG Linear Envelopes
nRows=43
nColumns=17

endheader
time	        VM	        VL	        RF	       GRA	        TA	   ADDLONG	   SEMIMEM	      BFLH	        GM	        GL	       TFL	   GLUTMAX	   GLUTMED	      PIRI	    OBTINT	        QF	
2.335	  0.415723	  0.395429	  0.050272	  0.286829	  0.112772	  0.202245	  0.387023	  0.245544	  0.171117	  0.149487	  0.189674	  0.144084	  0.053071	  0.219292	  0.566359	  0.325625	
2.3355	  0.416769	  0.398989	  0.051413	  0.286751	  0.112297	  0.203675	  0.383295	  0.242901	  0.170352	  0.149786	  0.193229	  0.145007	  0.053527	  0.218602	  0.567364	  0.321962	
2.336	  0.417793	  0.402504	  0.052569	  0.286713	  0.111833	  0.205098	  0.379567	  0.240268	  0.169587	  0.150082	  0.196803	  0.145927	  0.053989	  0.217922	  0.568575	  0.318324	
2.3365	  0.418796	  0.405973	  0.053742	  0.286716	  0.111382	  0.206513	  0.375840	  0.237646	  0.168823	  0.150375	  0.200395	  0.146845	  0.054457	  0.217250	  0.569996	  0.314710	
2.337	  0.419776	  0.409393	  0.054930	  0.286760	  0.110945	  0.207919	  0.372116	  0.235036	  0.168060	  0.150666	  0.204003	  0.147757	  0.054931	  0.216587	  0.571630	  0.311122	
2.3375	  0.420733	  0.412765	  0.056135	  0.286846	  0.110521	  0.209315	  0.368395	  0.232438	  0.167298	  0.150954	  0.207626	  0.148664	  0.055411	  0.215933	  0.573482	  0.307560	
2.338	  0.421664	  0.416086	  0.057355	  0.286974	  0.110111	  0.210699	  0.364677	  0.229854	  0.166539	  0.151239	  0.211263	  0.149564	  0.055896	  0.215287	  0.575556	  0.304025	
2.3385	  0.422570	  0.419357	  0.058591	  0.287144	  0.109717	  0.212071	  0.360966	  0.227285	  0.165782	  0.151520	  0.214912	  0.150455	  0.056385	  0.214650	  0.577854	  0.300518	
2.339	  0.423448	  0.422575	  0.059842	  0.287355	  0.109338	  0.213430	  0.357261	  0.224731	  0.165030	  0.151798	  0.218573	  0.151337	  0.056880	  0.214020	  0.580380	  0.297039	
2.3395	  0.424299	  0.425742	  0.061110	  0.287610	  0.108974	  0.214775	  0.353564	  0.222192	  0.164282	  0.152071	  0.222244	  0.152207	  0.057379	  0.213399	  0.583138	  0.293589	
2.34	  0.425119	  0.428855	  0.062392	  0.287906	  0.108627	  0.216104	  0.349877	  0.219671	  0.163540	  0.152341	  0.225923	  0.153065	  0.057882	  0.212785	  0.586130	  0.290169	
2.3405	  0.425909	  0.431915	  0.063691	  0.288246	  0.108297	  0.217418	  0.346201	  0.217167	  0.162804	  0.152606	  0.229609	  0.153909	  0.058388	  0.212179	  0.589360	  0.286779	
2.341	  0.426667	  0.434921	  0.065004	  0.288630	  0.107983	  0.218715	  0.342537	  0.214682	  0.162076	  0.152867	  0.233302	  0.154738	  0.058899	  0.211581	  0.592832	  0.283419	
2.3415	  0.427392	  0.437873	  0.066333	  0.289057	  0.107687	  0.219995	  0.338887	  0.212216	  0.161354	  0.153123	  0.236999	  0.155549	  0.059413	  0.210989	  0.596548	  0.280091	
2.342	  0.428081	  0.440768	  0.067677	  0.289529	  0.107408	  0.221259	  0.335252	  0.209770	  0.160642	  0.153375	  0.240699	  0.156342	  0.059930	  0.210405	  0.600513	  0.276794	
2.3425	  0.428734	  0.443608	  0.069037	  0.290046	  0.107148	  0.222505	  0.331633	  0.207344	  0.159938	  0.153621	  0.244401	  0.157116	  0.060450	  0.209828	  0.604730	  0.273529	
2.343	  0.429348	  0.446391	  0.070411	  0.290608	  0.106906	  0.223734	  0.328032	  0.204939	  0.159245	  0.153863	  0.248103	  0.157868	  0.060973	  0.209257	  0.609201	  0.270297	
2.3435	  0.429923	  0.449117	  0.071800	  0.291216	  0.106683	  0.224945	  0.324450	  0.202556	  0.158561	  0.154099	  0.251804	  0.158598	  0.061499	  0.208692	  0.613932	  0.267098	
2.344	  0.430458	  0.451784	  0.073203	  0.291871	  0.106478	  0.226139	  0.320888	  0.200195	  0.157889	  0.154330	  0.255502	  0.159303	  0.062028	  0.208133	  0.618925	  0.263932	
2.3445	  0.430949	  0.454392	  0.074621	  0.292573	  0.106293	  0.227315	  0.317346	  0.197857	  0.157228	  0.154555	  0.259196	  0.159984	  0.062558	  0.207579	  0.624184	  0.260801	
2.345	  0.431397	  0.456940	  0.076053	  0.293323	  0.106127	  0.228474	  0.313827	  0.195542	  0.156579	  0.154775	  0.262885	  0.160637	  0.063092	  0.207029	  0.629712	  0.257704	
2.3455	  0.431800	  0.459427	  0.077498	  0.294122	  0.105981	  0.229615	  0.310331	  0.193250	  0.155942	  0.154988	  0.266566	  0.161263	  0.063627	  0.206483	  0.635511	  0.254643	
2.346	  0.432156	  0.461851	  0.078958	  0.294970	  0.105855	  0.230739	  0.306858	  0.190982	  0.155319	  0.155196	  0.270240	  0.161860	  0.064164	  0.205940	  0.641586	  0.251617	
2.3465	  0.432465	  0.464212	  0.080431	  0.295868	  0.105748	  0.231845	  0.303411	  0.188738	  0.154709	  0.155397	  0.273905	  0.162426	  0.064702	  0.205401	  0.647938	  0.248628	
2.347	  0.432723	  0.466509	  0.081917	  0.296816	  0.105662	  0.232935	  0.299988	  0.186518	  0.154114	  0.155591	  0.277561	  0.162961	  0.065242	  0.204863	  0.654570	  0.245675	
2.3475	  0.432931	  0.468741	  0.083416	  0.297815	  0.105596	  0.234008	  0.296592	  0.184322	  0.153533	  0.155780	  0.281207	  0.163463	  0.065783	  0.204326	  0.661485	  0.242760	
2.348	  0.433086	  0.470906	  0.084928	  0.298865	  0.105551	  0.235065	  0.293222	  0.182151	  0.152967	  0.155961	  0.284842	  0.163932	  0.066324	  0.203790	  0.668685	  0.239883	
2.3485	  0.433187	  0.473004	  0.086452	  0.299968	  0.105526	  0.236106	  0.289880	  0.180004	  0.152416	  0.156136	  0.288466	  0.164366	  0.066867	  0.203255	  0.676171	  0.237044	
2.349	  0.433233	  0.475033	  0.087988	  0.301125	  0.105522	  0.237133	  0.286566	  0.177881	  0.151881	  0.156304	  0.292079	  0.164764	  0.067409	  0.202718	  0.683946	  0.234244	
2.3495	  0.433220	  0.476993	  0.089536	  0.302335	  0.105539	  0.238146	  0.283280	  0.175784	  0.151363	  0.156465	  0.295681	  0.165125	  0.067951	  0.202180	  0.692011	  0.231483	
2.35	  0.433149	  0.478881	  0.091095	  0.303600	  0.105577	  0.239145	  0.280022	  0.173710	  0.150861	  0.156619	  0.299269	  0.165449	  0.068494	  0.201640	  0.700369	  0.228763	
2.3505	  0.433018	  0.480696	  0.092665	  0.304921	  0.105636	  0.240133	  0.276794	  0.171662	  0.150377	  0.156765	  0.302845	  0.165733	  0.069035	  0.201097	  0.709020	  0.226082	
2.351	  0.432825	  0.482439	  0.094245	  0.306298	  0.105716	  0.241109	  0.273594	  0.169638	  0.149910	  0.156903	  0.306408	  0.165977	  0.069576	  0.200551	  0.717967	  0.223441	
2.3515	  0.432569	  0.484106	  0.095836	  0.307733	  0.105816	  0.242074	  0.270424	  0.167639	  0.149462	  0.157033	  0.309958	  0.166180	  0.070115	  0.200003	  0.727209	  0.220842	
2.352	  0.432249	  0.485698	  0.097436	  0.309227	  0.105938	  0.243029	  0.267283	  0.165665	  0.149031	  0.157154	  0.313493	  0.166342	  0.070652	  0.199451	  0.736750	  0.218283	
2.3525	  0.431865	  0.487214	  0.099046	  0.310780	  0.106081	  0.243975	  0.264172	  0.163715	  0.148619	  0.157267	  0.317015	  0.166461	  0.071188	  0.198896	  0.746589	  0.215766	
2.353	  0.431416	  0.488653	  0.100664	  0.312394	  0.106244	  0.244913	  0.261089	  0.161791	  0.148226	  0.157371	  0.320522	  0.166538	  0.071721	  0.198337	  0.756727	  0.213290	
2.3535	  0.430901	  0.490013	  0.102292	  0.314069	  0.106428	  0.245842	  0.258036	  0.159891	  0.147851	  0.157465	  0.324015	  0.166571	  0.072251	  0.197775	  0.767166	  0.210856	
2.354	  0.430320	  0.491295	  0.103927	  0.315806	  0.106632	  0.246764	  0.255011	  0.158016	  0.147497	  0.157550	  0.327494	  0.166561	  0.072778	  0.197209	  0.777907	  0.208463	
2.3545	  0.429673	  0.492498	  0.105571	  0.317606	  0.106857	  0.247680	  0.252015	  0.156165	  0.147161	  0.157626	  0.330958	  0.166508	  0.073301	  0.196639	  0.788948	  0.206113	
2.355	  0.428959	  0.493619	  0.107222	  0.319469	  0.107103	  0.248588	  0.249047	  0.154340	  0.146846	  0.157691	  0.334408	  0.166411	  0.073821	  0.196065	  0.800291	  0.203806	
2.3555	  0.428177	  0.494659	  0.108881	  0.321397	  0.107368	  0.249490	  0.246107	  0.152538	  0.146550	  0.157747	  0.337844	  0.166270	  0.074336	  0.195488	  0.811937	  0.201541	
2.356	  0.427327	  0.495615	  0.110547	  0.323389	  0.107654	  0.250386	  0.243194	  0.150761	  0.146274	  0.157792	  0.341266	  0.166086	  0.074846	  0.194907	  0.823884	  0.199319	
